<svg width="306" height="51" viewBox="0 0 306 51" fill="none" xmlns="http://www.w3.org/2000/svg">
<path d="M82.4301 13.4752H62.191C62.0804 13.4752 62 13.5657 62 13.6662V38.0776C62 38.1882 62.0905 38.2687 62.191 38.2687H65.1168C65.2274 38.2687 65.3078 38.1782 65.3078 38.0776V36.4288H79.2832V38.0776C79.2832 38.1882 79.3736 38.2687 79.4742 38.2687H82.4301C82.5407 38.2687 82.6211 38.1782 82.6211 38.0776V13.6662C82.6211 13.5556 82.5307 13.4752 82.4301 13.4752ZM79.2832 26.3746V33.1712H65.3078V26.3746H79.2832ZM65.3078 23.1171V16.7629H79.2832V23.1171H65.3078Z" fill="black" fill-opacity="0.9"/>
<path d="M102.116 20.312H111.306C111.416 20.312 111.497 20.2215 111.497 20.1209V17.2455C111.497 17.1349 111.406 17.0544 111.306 17.0544H101.04V12.6909C101.04 12.5803 100.95 12.4999 100.849 12.4999H97.8733C97.7627 12.4999 97.6823 12.5904 97.6823 12.6909V17.0544H87.4471C87.3365 17.0544 87.2561 17.1449 87.2561 17.2455V20.1209C87.2561 20.2315 87.3466 20.312 87.4471 20.312H96.5361C94.3845 24.595 90.4131 28.9183 86.12 31.6631C86.0697 31.6933 86.0395 31.7435 86.0295 31.7938C86.0295 31.8441 86.0295 31.9044 86.0697 31.9446L88.0705 34.5687C88.1308 34.6492 88.2515 34.6693 88.3319 34.609C89.7194 33.6337 91.0767 32.4373 92.3837 31.0699V33.0506C92.3837 33.1612 92.4742 33.2416 92.5748 33.2416H97.6622V38.3089C97.6622 38.4195 97.7527 38.4999 97.8532 38.4999H100.829C100.94 38.4999 101.02 38.4094 101.02 38.3089V33.2416H106.188C106.299 33.2416 106.379 33.1511 106.379 33.0506V30.7582C107.666 32.1356 109.033 33.4125 110.451 34.5587C110.491 34.5889 110.542 34.609 110.602 34.5989C110.652 34.5989 110.702 34.5587 110.733 34.5185L112.683 31.8139C112.683 31.8139 112.723 31.7134 112.713 31.6631C112.713 31.6128 112.673 31.5626 112.633 31.5324C108.832 29.0189 104.821 24.7459 102.086 20.322L102.116 20.312ZM93.3892 29.9539C94.9978 28.0738 96.4356 25.9121 97.6723 23.5293V29.9539H93.3892ZM101.04 29.9539V23.4187C102.337 25.7211 103.896 27.9129 105.675 29.9539H101.04Z" fill="black" fill-opacity="0.9"/>
<path d="M120.496 20.4326V13.4249C120.496 13.3143 120.405 13.2339 120.305 13.2339H116.997C116.886 13.2339 116.806 13.3243 116.806 13.4249V37.6755C116.806 37.7861 116.896 37.8665 116.997 37.8665L120.305 37.8967C120.355 37.8967 120.405 37.8766 120.445 37.8363C120.486 37.7961 120.506 37.7459 120.506 37.6956V24.032C124.547 25.3089 130.238 27.3197 134.883 29.7327C134.933 29.7629 134.984 29.7629 135.044 29.7327C135.094 29.7126 135.134 29.6724 135.155 29.6221L136.482 26.264C136.522 26.1735 136.482 26.0629 136.381 26.0227C131.857 23.851 123.532 21.2772 120.506 20.4125L120.496 20.4326Z" fill="black" fill-opacity="0.9"/>
<path d="M160.049 21.0359C160.009 20.9856 159.948 20.9454 159.878 20.9554C159.808 20.9554 159.747 20.9956 159.717 21.056C156.178 27.4605 150.658 31.7837 144.555 32.95C144.586 28.124 144.807 15.7273 144.827 14.5208C144.827 14.4705 144.807 14.4202 144.777 14.38C144.746 14.3398 144.696 14.3197 144.636 14.3197L141.227 14.2895C141.167 14.2895 141.127 14.3096 141.087 14.3499C141.047 14.3901 141.026 14.4403 141.026 14.4906V37.1627C141.026 37.213 141.047 37.2733 141.087 37.3035C141.127 37.3336 141.167 37.3537 141.217 37.3537C141.217 37.3537 141.228 37.3537 141.238 37.3537C150.296 36.3483 157.364 31.9848 162.241 24.3738C162.281 24.3035 162.281 24.223 162.241 24.1627L160.049 21.0459V21.0359Z" fill="black" fill-opacity="0.9"/>
<path d="M186.551 18.1604H177.301C177.382 16.6221 177.422 15.0939 177.422 13.6159C177.422 13.5054 177.342 13.4249 177.231 13.4249L173.953 13.3948C173.903 13.3948 173.853 13.4149 173.813 13.4551C173.772 13.4953 173.752 13.5456 173.752 13.5958C173.752 15.1743 173.752 16.6624 173.682 18.1705H165.578C165.468 18.1705 165.387 18.261 165.387 18.3615V21.1767C165.387 21.2873 165.478 21.3677 165.578 21.3677H173.431C172.596 28.5765 170.012 32.1558 163.658 34.981C163.598 35.0112 163.557 35.0614 163.547 35.1218C163.537 35.1821 163.557 35.2525 163.608 35.2927L166.151 37.5951C166.151 37.5951 166.232 37.6453 166.282 37.6453C166.312 37.6453 166.342 37.6453 166.373 37.6252C173.179 34.0761 176.085 29.6624 177.02 21.3677H183.153C183.153 24.404 182.932 29.4512 182.479 31.5928C182.057 33.493 180.629 33.7443 179.282 33.7443C178.407 33.7443 177.191 33.6438 175.653 33.4528C175.572 33.4427 175.522 33.4729 175.472 33.5231C175.431 33.5734 175.421 33.6438 175.441 33.7142L176.658 36.9617C176.688 37.032 176.748 37.0823 176.829 37.0823L177.151 37.1024C177.694 37.1326 178.428 37.1728 179.172 37.1728C181.776 37.1728 184.892 36.6701 185.858 32.749C186.421 30.4566 186.702 23.6902 186.732 18.3716C186.732 18.3213 186.712 18.271 186.672 18.2308C186.632 18.1906 186.581 18.1705 186.531 18.1705L186.551 18.1604Z" fill="black" fill-opacity="0.9"/>
<path d="M203.995 29.0993C203.935 29.1295 203.895 29.1898 203.885 29.2602C203.885 29.3305 203.915 29.3909 203.965 29.4311L206.84 31.3816C206.901 31.4218 206.981 31.4218 207.052 31.3816C211.606 28.6871 215.105 23.0165 215.196 18.1906C215.196 18.1302 215.175 18.08 215.125 18.0397C215.085 17.9995 215.025 17.9895 214.964 17.9995L200.587 20.2919L200.637 14.0985C200.637 14.0482 200.617 13.998 200.577 13.9578C200.536 13.9175 200.486 13.8974 200.436 13.8974H197.128C197.018 13.8974 196.937 13.9879 196.937 14.0885V20.8348L191.086 21.7598C191.086 21.7598 190.995 21.8 190.955 21.8402C190.925 21.8804 190.915 21.9307 190.925 21.981L191.387 24.8766C191.387 24.9268 191.427 24.9771 191.468 25.0073C191.508 25.0374 191.558 25.0475 191.608 25.0374L196.907 24.1527C196.887 26.5958 196.887 29.0892 196.887 31.5123C196.887 36.9415 200.607 37.2029 207.182 37.2029C209.364 37.2029 211.837 37.0722 214.14 36.851C214.23 36.851 214.311 36.7605 214.311 36.6701L214.472 33.503C214.472 33.4427 214.452 33.3924 214.411 33.3522C214.371 33.312 214.311 33.2919 214.25 33.3019C211.465 33.6639 208.942 33.8448 206.75 33.8448C201.311 33.8448 200.496 33.4527 200.496 30.8186C200.496 29.039 200.526 26.3746 200.547 23.5595L210.802 21.8503C210.189 23.5595 207.946 27.1186 203.985 29.0993H203.995Z" fill="black" fill-opacity="0.9"/>
<path d="M240.019 16.974C239.969 16.9438 239.899 16.9338 239.849 16.9639C239.788 16.9841 239.748 17.0343 239.738 17.0947C237.255 27.2895 231.654 32.1356 220.394 33.8247C220.323 33.8247 220.273 33.875 220.243 33.9353C220.213 33.9957 220.223 34.066 220.253 34.1163L222.234 37.1527C222.274 37.213 222.334 37.2431 222.394 37.2431C222.405 37.2431 222.415 37.2431 222.435 37.2431C236.963 34.3878 240.904 26.7768 243.006 18.9848C243.026 18.9044 242.996 18.8139 242.925 18.7737L240.03 16.9841L240.019 16.974Z" fill="black" fill-opacity="0.9"/>
<path d="M227.784 23.4187C227.844 23.4187 227.894 23.3885 227.924 23.3483L230.176 20.4729C230.237 20.3924 230.227 20.2818 230.156 20.2114C228.075 18.2408 224.335 16.0993 222.334 15.1341C222.264 15.0939 222.173 15.114 222.113 15.1743L219.841 17.5572C219.841 17.5572 219.78 17.6577 219.79 17.718C219.8 17.7783 219.841 17.8286 219.891 17.8588C222.203 19.0452 225.612 21.1967 227.643 23.3483C227.683 23.3885 227.733 23.4087 227.784 23.4087V23.4187Z" fill="black" fill-opacity="0.9"/>
<path d="M268.425 16.592C267.993 16.592 266.404 16.592 264.514 16.602C261.96 16.602 258.874 16.6221 257.365 16.6221C257.828 15.7675 258.24 14.8626 258.602 13.9276C258.622 13.8773 258.622 13.817 258.592 13.7667C258.562 13.7165 258.512 13.6863 258.461 13.6662L255.234 13.0428C255.133 13.0227 255.043 13.0831 255.013 13.1735C253.766 16.9539 249.996 22.3731 244.697 25.3391C244.637 25.3692 244.607 25.4295 244.597 25.4899C244.586 25.5502 244.617 25.6206 244.667 25.6608L247.291 27.8325C247.361 27.8928 247.452 27.8928 247.522 27.8325C250.669 25.5804 253.434 22.7652 255.536 19.6886L264.625 19.6585C264.092 22.4032 262.885 25.1279 261.307 27.189C258.994 25.4094 256.3 23.7103 254.631 22.7954C254.55 22.7551 254.46 22.7652 254.399 22.8356L252.419 24.8967C252.419 24.8967 252.358 24.9972 252.368 25.0575C252.379 25.1179 252.409 25.1681 252.459 25.1983C254.49 26.4551 256.822 27.9431 258.984 29.7528C255.807 32.6886 251.675 34.5285 246.708 35.2424C246.638 35.2524 246.577 35.3027 246.557 35.3731C246.537 35.4435 246.557 35.5138 246.597 35.5641L248.98 38.0877C248.98 38.0877 249.071 38.148 249.121 38.148C249.131 38.148 249.141 38.148 249.161 38.148C265.077 35.1418 268.063 22.2323 268.606 16.8232C268.606 16.7729 268.596 16.7126 268.556 16.6724C268.515 16.6322 268.465 16.6121 268.415 16.6121L268.425 16.592Z" fill="black" fill-opacity="0.9"/>
<path d="M293.808 23.7907H271.278C271.173 23.7907 271.088 23.8763 271.088 23.9818V27.0181C271.088 27.1236 271.173 27.2092 271.278 27.2092H293.808C293.913 27.2092 293.998 27.1236 293.998 27.0181V23.9818C293.998 23.8763 293.913 23.7907 293.808 23.7907Z" fill="black" fill-opacity="0.9"/>
<path d="M20.6726 8.5237L8.50043 20.726C7.83319 21.3949 7.83319 22.4793 8.50043 23.1482L27.8027 42.4983C28.4699 43.1671 29.5517 43.1671 30.219 42.4983L42.3911 30.296C43.0584 29.6271 43.0584 28.5426 42.3911 27.8737L23.0888 8.5237C22.4216 7.85482 21.3398 7.85482 20.6726 8.5237Z" fill="#2BA23A"/>
<path d="M49.5013 20.704L37.3307 8.49996C36.6657 7.83333 35.5793 7.83333 34.9143 8.49996L30.5754 12.8496L45.1624 27.4727L49.5013 23.123C50.1663 22.4564 50.1663 21.3673 49.5013 20.7007V20.704Z" fill="#89B929"/>
</svg>
