<!--?xml version="1.0" encoding="utf-8"?-->
<!-- Generator: Adobe Illustrator 18.0.0, SVG Export Plug-In . SVG Version: 6.00 Build 0)  -->

<svg version="1.1" id="_x32_" xmlns="http://www.w3.org/2000/svg" xmlns:xlink="http://www.w3.org/1999/xlink" x="0px" y="0px" viewBox="0 0 512 512" style="width: 256px; height: 256px; opacity: 1;" xml:space="preserve">
<style type="text/css">
	.st0{fill:#4B4B4B;}
</style>
<g>
	<path class="st0" d="M340.299,371.665v-0.262c-25.857,11.348-54.307,17.672-84.299,17.672c-29.647,0-57.858-6.18-83.434-17.27
		c-3.482-1.551-6.937-3.184-10.352-4.941v0.113c-0.078-0.039-0.162-0.074-0.24-0.113v139.094c0,5.102,5.94,7.898,9.871,4.648
		l75.451-62.348c2.228-1.844,5.451-1.844,7.682,0l75.449,62.348c3.932,3.25,9.871,0.453,9.871-4.648V409.7l0.096-38.074
		C340.363,371.637,340.332,371.649,340.299,371.665z" style="fill: rgb(75, 75, 75);"></path>
	<path class="st0" d="M256,0C157.513,0,77.675,79.836,77.675,178.324S157.513,356.649,256,356.649
		c98.486,0,178.324-79.836,178.324-178.325S354.487,0,256,0z M173.441,178.324c0-45.52,37.033-82.555,82.559-82.555
		c45.524,0,82.557,37.035,82.557,82.555S301.524,260.883,256,260.883C210.475,260.883,173.441,223.844,173.441,178.324z" style="fill: rgb(75, 75, 75);"></path>
</g>
</svg>
